name C:\Users\u0101727\Documents\MyRepositories\upper-imu-dc\Results\main_tracking\Case_42\FLX01_linearAccelerations_bodyFrame.mot
datacolumns 4
datarows 141
range 3.51000000 4.91000000
endheader 
time	radius_imu_x	radius_imu_y	radius_imu_z	
          3.51000000	         -0.35207451	         -9.52102040	          2.20282812	
          3.52000000	         -0.36469979	         -9.51903780	          2.20409295	
          3.53000000	         -0.37439244	         -9.51672530	          2.20600556	
          3.54000000	         -0.38102522	         -9.51424929	          2.20851238	
          3.55000000	         -0.38463353	         -9.51178808	          2.21150125	
          3.56000000	         -0.38540247	         -9.50952544	          2.21481224	
          3.57000000	         -0.38363167	         -9.50763681	          2.21825652	
          3.58000000	         -0.37968481	         -9.50626542	          2.22163918	
          3.59000000	         -0.37392999	         -9.50549225	          2.22478079	
          3.60000000	         -0.36667909	         -9.50531336	          2.22753426	
          3.61000000	         -0.35813960	         -9.50563698	          2.22979528	
          3.62000000	         -0.34839279	         -9.50629888	          2.23150722	
          3.63000000	         -0.33740189	         -9.50708397	          2.23266217	
          3.64000000	         -0.32504256	         -9.50774576	          2.23329989	
          3.65000000	         -0.31114551	         -9.50802522	          2.23350500	
          3.66000000	         -0.29554125	         -9.50767105	          2.23340159	
          3.67000000	         -0.27809593	         -9.50645587	          2.23314580	
          3.68000000	         -0.25873204	         -9.50418331	          2.23291665	
          3.69000000	         -0.23744053	         -9.50068862	          2.23290643	
          3.70000000	         -0.21429089	         -9.49584202	          2.23331029	
          3.71000000	         -0.18943370	         -9.48956099	          2.23431454	
          3.72000000	         -0.16309188	         -9.48182746	          2.23608368	
          3.73000000	         -0.13554761	         -9.47269464	          2.23875048	
          3.74000000	         -0.10714126	         -9.46227125	          2.24241370	
          3.75000000	         -0.07828503	         -9.45068678	          2.24714143	
          3.76000000	         -0.04947502	         -9.43805144	          2.25297426	
          3.77000000	         -0.02127885	         -9.42442012	          2.25992435	
          3.78000000	          0.00571164	         -9.40976718	          2.26796944	
          3.79000000	          0.03094464	         -9.39398405	          2.27704487	
          3.80000000	          0.05395253	         -9.37691107	          2.28703985	
          3.81000000	          0.07435689	         -9.35839848	          2.29780100	
          3.82000000	          0.09184136	         -9.33837153	          2.30914096	
          3.83000000	          0.10611074	         -9.31687079	          2.32084982	
          3.84000000	          0.11685950	         -9.29405440	          2.33270997	
          3.85000000	          0.12376870	         -9.27016957	          2.34451509	
          3.86000000	          0.12652836	         -9.24551097	          2.35608990	
          3.87000000	          0.12486303	         -9.22038037	          2.36730525	
          3.88000000	          0.11854777	         -9.19505273	          2.37808330	
          3.89000000	          0.10741242	         -9.16974882	          2.38839352	
          3.90000000	          0.09134002	         -9.14461639	          2.39824334	
          3.91000000	          0.07024640	         -9.11972693	          2.40766775	
          3.92000000	          0.04404818	         -9.09508192	          2.41671891	
          3.93000000	          0.01263889	         -9.07061095	          2.42545712	
          3.94000000	         -0.02410857	         -9.04615666	          2.43394628	
          3.95000000	         -0.06631634	         -9.02146921	          2.44225522	
          3.96000000	         -0.11406868	         -8.99623582	          2.45046262	
          3.97000000	         -0.16738075	         -8.97014065	          2.45866193	
          3.98000000	         -0.22617692	         -8.94292746	          2.46696425	
          3.99000000	         -0.29029259	         -8.91444376	          2.47549994	
          4.00000000	         -0.35950643	         -8.88465819	          2.48442085	
          4.01000000	         -0.43359219	         -8.85365403	          2.49390315	
          4.02000000	         -0.51237195	         -8.82160705	          2.50414705	
          4.03000000	         -0.59575749	         -8.78875187	          2.51537328	
          4.04000000	         -0.68377682	         -8.75533721	          2.52781990	
          4.05000000	         -0.77658539	         -8.72157618	          2.54174099	
          4.06000000	         -0.87445160	         -8.68760221	          2.55740366	
          4.07000000	         -0.97770158	         -8.65343683	          2.57508112	
          4.08000000	         -1.08662423	         -8.61897086	          2.59504230	
          4.09000000	         -1.20135732	         -8.58395884	          2.61753934	
          4.10000000	         -1.32178106	         -8.54802537	          2.64279558	
          4.11000000	         -1.44744259	         -8.51068178	          2.67099873	
          4.12000000	         -1.57753088	         -8.47135807	          2.70230157	
          4.13000000	         -1.71091434	         -8.42945991	          2.73682612	
          4.14000000	         -1.84623002	         -8.38444589	          2.77466704	
          4.15000000	         -1.98198751	         -8.33589829	          2.81589526	
          4.16000000	         -2.11665098	         -8.28355673	          2.86056445	
          4.17000000	         -2.24868609	         -8.22730485	          2.90872098	
          4.18000000	         -2.37659135	         -8.16712786	          2.96041381	
          4.19000000	         -2.49895009	         -8.10307054	          3.01569731	
          4.20000000	         -2.61451543	         -8.03520754	          3.07462321	
          4.21000000	         -2.72230467	         -7.96361458	          3.13722388	
          4.22000000	         -2.82167443	         -7.88833146	          3.20349055	
          4.23000000	         -2.91236833	         -7.80932940	          3.27334680	
          4.24000000	         -2.99455357	         -7.72651229	          3.34661620	
          4.25000000	         -3.06886463	         -7.63977225	          3.42298779	
          4.26000000	         -3.13643180	         -7.54908254	          3.50199456	
          4.27000000	         -3.19882439	         -7.45458011	          3.58302660	
          4.28000000	         -3.25786364	         -7.35660215	          3.66538678	
          4.29000000	         -3.31537422	         -7.25567477	          3.74836664	
          4.30000000	         -3.37299727	         -7.15246325	          3.83130983	
          4.31000000	         -3.43209088	         -7.04768458	          3.91365549	
          4.32000000	         -3.49363610	         -6.94198826	          3.99497629	
          4.33000000	         -3.55808267	         -6.83583105	          4.07502227	
          4.34000000	         -3.62519117	         -6.72938151	          4.15375873	
          4.35000000	         -3.69401157	         -6.62248556	          4.23137178	
          4.36000000	         -3.76306263	         -6.51470631	          4.30822493	
          4.37000000	         -3.83064704	         -6.40542645	          4.38477321	
          4.38000000	         -3.89519147	         -6.29398097	          4.46145911	
          4.39000000	         -3.95551989	         -6.17978314	          4.53861807	
          4.40000000	         -4.01099862	         -6.06241632	          4.61641533	
          4.41000000	         -4.06150363	         -5.94167183	          4.69482994	
          4.42000000	         -4.10720260	         -5.81752046	          4.77369341	
          4.43000000	         -4.14827432	         -5.69003040	          4.85276024	
          4.44000000	         -4.18476962	         -5.55927532	          4.93176339	
          4.45000000	         -4.21670587	         -5.42527483	          5.01042981	
          4.46000000	         -4.24431944	         -5.28797882	          5.08846955	
          4.47000000	         -4.26833999	         -5.14728553	          5.16556414	
          4.48000000	         -4.29016352	         -5.00308322	          5.24136953	
          4.49000000	         -4.31181322	         -4.85530299	          5.31554441	
          4.50000000	         -4.33563863	         -4.70396219	          5.38780933	
          4.51000000	         -4.36387877	         -4.54918069	          5.45801680	
          4.52000000	         -4.39831944	         -4.39116532	          5.52619717	
          4.53000000	         -4.44014830	         -4.23016897	          5.59256879	
          4.54000000	         -4.48995815	         -4.06644002	          5.65752374	
          4.55000000	         -4.54784668	         -3.90018301	          5.72159051	
          4.56000000	         -4.61358102	         -3.73154259	          5.78536930	
          4.57000000	         -4.68673424	         -3.56060114	          5.84945828	
          4.58000000	         -4.76670523	         -3.38737373	          5.91440147	
          4.59000000	         -4.85268081	         -3.21180478	          5.98066205	
          4.60000000	         -4.94368397	         -3.03378366	          6.04859980	
          4.61000000	         -5.03874332	         -2.85317746	          6.11843728	
          4.62000000	         -5.13709046	         -2.66985389	          6.19021908	
          4.63000000	         -5.23825326	         -2.48366319	          6.26378284	
          4.64000000	         -5.34197704	         -2.29436977	          6.33876169	
          4.65000000	         -5.44805711	         -2.10155960	          6.41461835	
          4.66000000	         -5.55624241	         -1.90457183	          6.49069502	
          4.67000000	         -5.66626772	         -1.70249375	          6.56626911	
          4.68000000	         -5.77794269	         -1.49422237	          6.64061154	
          4.69000000	         -5.89119640	         -1.27856279	          6.71304016	
          4.70000000	         -6.00602676	         -1.05433103	          6.78296015	
          4.71000000	         -6.12239311	         -0.82044856	          6.84988535	
          4.72000000	         -6.24014322	         -0.57603041	          6.91343898	
          4.73000000	         -6.35902275	         -0.32046761	          6.97333903	
          4.74000000	         -6.47872180	         -0.05349524	          7.02938117	
          4.75000000	         -6.59887377	          0.22476879	          7.08142821	
          4.76000000	         -6.71898036	          0.51383106	          7.12940255	
          4.77000000	         -6.83830889	          0.81288530	          7.17327113	
          4.78000000	         -6.95582157	          1.12091835	          7.21301769	
          4.79000000	         -7.07016057	          1.43682823	          7.24860751	
          4.80000000	         -7.17967271	          1.75952508	          7.27995500	
          4.81000000	         -7.28246236	          2.08800177	          7.30690292	
          4.82000000	         -7.37646968	          2.42136589	          7.32922290	
          4.83000000	         -7.45954509	          2.75882490	          7.34664313	
          4.84000000	         -7.52949492	          3.09964866	          7.35889291	
          4.85000000	         -7.58410802	          3.44316252	          7.36574313	
          4.86000000	         -7.62119213	          3.78879381	          7.36703134	
          4.87000000	         -7.63864262	          4.13614012	          7.36267075	
          4.88000000	         -7.63453657	          4.48500186	          7.35264847	
          4.89000000	         -7.60725112	          4.83533640	          7.33701566	
          4.90000000	         -7.55561632	          5.18712714	          7.31586804	
          4.91000000	         -7.47905099	          5.54020909	          7.28931952	
